<svg height="100.68" width="120" xmlns="http://www.w3.org/2000/svg" version="1.1" xmlns:xlink="http://www.w3.org/1999/xlink">
  <path class="fil0" d="M28233 16712c-655-6-1053 23-1440 216-424 211-907 634-1721 1411-540 516-1178 930-1884 1213-682 273-1424 424-2198 424-1634 0-3113-662-4184-1733s-1733-2550-1733-4184 662-3113 1733-4184 2550-1733 4184-1733c774 0 1516 150 2198 424 706 283 1344 697 1884 1212 810 773 1293 1197 1713 1408 382 192 776 224 1418 219 157-1 346-3 532-4 946-8 1881-16 2834 1 760 13 1203 1 1608-185 437-200 925-625 1778-1438 540-516 1178-930 1884-1212 682-273 1424-424 2198-424 1634 0 3113 662 4184 1733s1733 2550 1733 4184-662 3113-1733 4184-2550 1733-4184 1733c-774 0-1516-150-2198-424-706-283-1344-697-1884-1213-781-746-1259-1167-1671-1385-368-196-730-240-1300-242-537-2-1072 0-1607 2-713 3-1427 5-2144-1zm0 31885c-655-6-1053 23-1440 216-424 211-907 634-1721 1411-540 516-1178 930-1884 1212-682 273-1424 424-2198 424-1634 0-3113-662-4184-1733s-1733-2550-1733-4184 662-3113 1733-4184 2550-1733 4184-1733c774 0 1516 150 2198 424 706 283 1344 697 1884 1212 810 773 1293 1197 1713 1408 382 192 776 224 1418 219 157-1 346-3 532-4 946-8 1881-16 2834 1 760 13 1203 1 1608-185 437-200 925-625 1778-1438 540-516 1178-930 1884-1212 682-273 1424-424 2198-424 1634 0 3113 662 4184 1733s1733 2550 1733 4184-662 3113-1733 4184-2550 1733-4184 1733c-774 0-1516-150-2198-424-706-283-1344-697-1884-1212-781-746-1259-1167-1671-1385-368-196-730-240-1300-242-537-2-1072 0-1607 2-713 3-1427 5-2144-1zm-1947-811c592-294 1118-340 1956-332 714 6 1425 4 2135 1 535-2 1071-4 1607-2 762 3 1265 71 1838 376 530 282 1068 751 1922 1565 437 417 952 751 1521 979 545 218 1143 338 1772 338 1317 0 2509-534 3372-1397s1397-2055 1397-3372-534-2509-1397-3372-2055-1397-3372-1397c-629 0-1227 120-1772 338-569 228-1084 563-1521 979-944 901-1505 1380-2092 1649-618 283-1172 304-2101 288-945-16-1870-9-2807-1-169 1-337 3-537 4-822 6-1344-43-1934-340-553-278-1102-752-1991-1600-437-417-952-751-1521-979-545-218-1143-338-1772-338-1317 0-2509 534-3372 1397s-1397 2055-1397 3372 534 2509 1397 3372 2055 1397 3372 1397c629 0 1227-120 1772-338 569-228 1084-563 1521-979 897-856 1448-1332 2004-1608m16777-16121c995-9 1618 44 2313 390 659 327 1318 897 2396 1926 540 515 1176 928 1879 1210 674 270 1413 419 2190 419 1627 0 3101-660 4167-1726s1726-2540 1726-4167-660-3101-1726-4167-2540-1726-4167-1726c-777 0-1516 149-2190 419-703 282-1340 695-1879 1210-1068 1019-1725 1587-2381 1917-693 348-1310 406-2287 399-239-2-443-3-649-5-1136-9-2257-19-3401 1-1069 19-1720-3-2416-302-671-288-1310-813-2352-1797-18-17-35-35-50-53-512-528-1126-961-1811-1270-673-303-1411-484-2185-514h-2l-72-3-33-1c-26-1-45-1-60-1h-147c-15 0-34 1-58 1l-71 2c-14 0-9 0-32 1-7 0-13 0-20 1-769 32-1503 212-2172 514-698 315-1322 759-1841 1300l-21 21 1 1c-1041 984-1680 1509-2352 1797-696 299-1347 321-2416 302-1145-20-2266-10-3401-1-206 2-410 3-649 5-977 7-1594-51-2287-399-656-330-1313-898-2381-1917-540-515-1176-928-1879-1210-674-270-1413-419-2190-419-1627 0-3101 660-4167 1726s-1726 2540-1726 4167 660 3101 1726 4167 2540 1726 4167 1726c777 0 1516-149 2190-419 703-282 1340-695 1879-1210 1078-1028 1737-1598 2396-1926 695-346 1319-399 2313-390 865 8 1726 5 2586 2 648-2 1295-5 1945-2 867 3 1450 77 2092 401 605 305 1215 817 2153 1704 18 17 35 35 50 53 512 528 1126 961 1811 1270 673 303 1410 484 2185 514h2c35 1 70 3 105 4 26 1 45 1 60 1h147c15 0 35-1 60-1l66-2c15-1 30-1 45-2 773-31 1509-211 2181-514 699-315 1323-759 1841-1300l21-21-1-1c938-887 1548-1399 2153-1704 642-324 1225-398 2092-401 649-2 1297 0 1945 2 860 3 1721 6 2586-2zm1806 1417c-490-244-986-281-1797-273-868 8-1732 5-2595 2-648-2-1295-5-1945-2-683 2-1129 54-1577 280-485 244-1026 704-1884 1515l-1-1c-619 642-1356 1166-2174 1534-798 360-1677 575-2603 613l-30 1-23 1-42 1-42 1c-18 0-41 1-69 1h-174c-28 0-52-1-69-1l-42-1c-29-1-57-2-85-3-930-37-1813-252-2613-613-813-367-1546-886-2163-1523l-12-11c-858-811-1399-1271-1884-1515-448-225-893-277-1577-280-649-2-1297 0-1945 2-863 3-1727 6-2595-2-812-7-1307 30-1797 273-527 262-1119 780-2113 1728-643 614-1403 1107-2242 1443-811 325-1694 504-2616 504-1944 0-3705-788-4979-2062s-2062-3034-2062-4979c0-1944 788-3705 2062-4979s3034-2062 4979-2062c922 0 1804 179 2616 504 840 336 1599 830 2242 1443 989 944 1581 1462 2103 1724 485 244 974 284 1771 278 194-1 420-3 644-5 1145-10 2275-19 3428 1 905 16 1447 1 1945-213 523-225 1081-690 2020-1578l1 1c619-642 1356-1166 2174-1534 795-358 1670-573 2593-612l16-1c30-2 60-2 90-3l42-1c18 0 42-1 69-1h64c36-1 74 0 110 0 28 0 52 1 69 1l42 1c28 1 57 2 85 3 930 37 1813 252 2613 613 813 367 1546 886 2163 1523l12 11c939 888 1497 1353 2020 1578 498 214 1040 228 1945 213 1153-20 2283-11 3428-1 224 2 451 4 644 5 797 6 1286-34 1771-278 522-262 1114-780 2103-1724 643-614 1403-1107 2242-1443 811-325 1694-504 2616-504 1944 0 3705 788 4979 2062s2062 3034 2062 4979c0 1944-788 3705-2062 4979s-3034 2062-4979 2062c-922 0-1804-179-2616-504-840-336-1599-830-2242-1443-994-949-1587-1467-2113-1728zM26286 15902c592-294 1118-340 1956-332 714 6 1425 4 2135 1 535-2 1071-4 1607-2 762 3 1265 71 1838 376 530 282 1068 751 1922 1565 437 417 952 751 1521 979 545 218 1143 338 1772 338 1317 0 2509-534 3372-1397s1397-2055 1397-3372-534-2509-1397-3372-2055-1397-3372-1397c-629 0-1227 120-1772 338-569 228-1084 563-1521 979-944 900-1505 1380-2092 1649-618 283-1172 304-2101 288-945-16-1870-9-2807-1-169 1-337 3-537 4-822 6-1344-43-1934-340-553-278-1102-752-1991-1600-437-417-952-751-1521-979-545-218-1143-338-1772-338-1317 0-2509 534-3372 1397s-1397 2055-1397 3372 534 2509 1397 3372 2055 1397 3372 1397c629 0 1227-120 1772-338 569-228 1084-563 1521-979 897-856 1448-1332 2004-1608" transform="translate(0, -12)scale(0.002)" xmlns="http://www.w3.org/2000/svg" fill="#ffffff"/>
</svg>
